<?xml version="1.0" encoding="utf-8"?>
<!-- Generator: Adobe Illustrator 25.0.1, SVG Export Plug-In . SVG Version: 6.00 Build 0)  -->
<svg version="1.1" id="Layer_1" xmlns="http://www.w3.org/2000/svg" xmlns:xlink="http://www.w3.org/1999/xlink" x="0px" y="0px"
	 viewBox="0 0 188 60" style="enable-background:new 0 0 188 60;" xml:space="preserve">
<style type="text/css">
	.st0{fill:#8A8C8E;}
	.st1{fill:url(#SVGID_1_);}
	.st2{fill:#006293;}
	.st3{fill:#EA4C38;}
</style>
<g>
	<g>
		<path class="st0" d="M42.85,45.49L41,44.58c-0.39-0.19-0.76-0.42-1.12-0.66C43.2,40.07,45,35.23,45,30.07
			C45,18.34,35.46,8.8,23.73,8.8c-2.63,0-5.21,0.5-7.63,1.42v3.48v0.38c2.36-1.13,4.97-1.73,7.63-1.73
			c9.77,0,17.72,7.95,17.72,17.72c0,4.2-1.44,8.16-4.1,11.33c-0.25-0.37-0.49-0.76-0.69-1.17l-0.91-1.84
			c-0.48-0.97-1.94-0.63-1.94,0.45v7.56c0,0.57,0.46,1.02,1.02,1.02h7.56C43.48,47.43,43.82,45.97,42.85,45.49z"/>
		<g>
			<radialGradient id="SVGID_1_" cx="21.6024" cy="25.3187" r="19.3975" gradientUnits="userSpaceOnUse">
				<stop  offset="0" style="stop-color:#FFFFFF"/>
				<stop  offset="0.2834" style="stop-color:#8DC0DA"/>
				<stop  offset="0.4676" style="stop-color:#4799C4"/>
				<stop  offset="0.5848" style="stop-color:#2882AF"/>
				<stop  offset="0.7576" style="stop-color:#006A9A"/>
				<stop  offset="0.8486" style="stop-color:#006293"/>
			</radialGradient>
			<path class="st1" d="M23.68,15.94c-2.79,0-5.39,0.82-7.59,2.2v3.11c0,1.95-1.53,3.48-3.49,3.48c-0.66,0-1.29-0.19-1.83-0.52
				c-0.83,1.8-1.31,3.8-1.31,5.91c0,7.83,6.36,14.17,14.22,14.17c2.83,0,5.46-0.83,7.67-2.25v-3.19c0-1.95,1.53-3.48,3.49-3.48
				c0.66,0,1.28,0.18,1.81,0.51c0.79-1.76,1.24-3.71,1.24-5.77C37.9,22.29,31.54,15.94,23.68,15.94z"/>
		</g>
		<path class="st2" d="M23.73,47.8C13.95,47.8,6,39.85,6,30.07c0-0.38,0.02-0.77,0.04-1.14c0.01-0.1,0.02-0.2,0.02-0.3
			c0.02-0.3,0.06-0.6,0.1-0.89c0.01-0.08,0.02-0.15,0.03-0.23c0.35-2.38,1.18-4.6,2.38-6.58c0-0.01-0.01-0.02-0.02-0.03
			c0.46-0.76,0.98-1.49,1.56-2.17c0.25,0.36,0.48,0.74,0.67,1.14l0.91,1.84c0.48,0.97,1.94,0.63,1.94-0.45V13.7
			c0-0.57-0.46-1.02-1.02-1.02H5.06c-1.08,0-1.43,1.46-0.45,1.94l1.84,0.91c0.4,0.2,0.78,0.43,1.15,0.68
			c-1.21,1.41-2.22,2.96-3.02,4.62c-0.01,0.01-0.01,0.02-0.02,0.03c-0.43,0.89-0.79,1.8-1.09,2.74c-0.04,0.11-0.07,0.22-0.1,0.33
			c-0.11,0.37-0.22,0.75-0.31,1.13c-0.02,0.1-0.05,0.19-0.07,0.28c-0.1,0.46-0.19,0.92-0.27,1.38c-0.02,0.12-0.03,0.24-0.05,0.36
			c-0.05,0.37-0.09,0.74-0.13,1.11c-0.01,0.14-0.03,0.28-0.03,0.42c-0.03,0.48-0.06,0.97-0.06,1.46c0,11.73,9.54,21.28,21.28,21.28
			c2.69,0,5.26-0.51,7.63-1.42v-3.52v-0.36C29.04,47.15,26.46,47.8,23.73,47.8z"/>
	</g>
	<g>
		<path class="st3" d="M118.4,17.24c0-3.02-2.1-4.8-4.49-4.8c-2.39,0-3.1,1.71-3.1,1.71s-0.71-1.71-3.1-1.71s-4.49,1.78-4.49,4.8
			v5.65c0,2.26,0,3.5,0,3.5h3.05c0,0,0-1.51,0-3.16v-5.63c0-1.14,0.18-2.48,1.51-2.48c1.32,0,1.51,1.34,1.51,2.48v4.26h3.05v-4.26
			c0-1.14,0.19-2.48,1.51-2.48c1.33,0,1.51,1.34,1.51,2.48c0,0,0,5.13,0,5.63c0,1.65-0.01,3.16-0.01,3.16h3.06
			c0,0-0.01-1.24-0.01-3.5V17.24z"/>
		<path class="st3" d="M144.74,14.19c-0.63-0.23-0.98-0.45-1.28-0.64c-0.29-0.17-0.38-0.37-0.38-0.57c0-0.01-0.01-0.41-0.01-0.55
			h-2.96l0.01,0.79c0,1.68,0.86,2.06,2.86,3.13l1.33,0.71c0.81,0.4,1.2,1.16,1.2,2.19l0,1.96c0,1.56-0.81,2.52-2.11,2.52
			c-1.11,0-1.86-0.7-2.06-1.87l-2.97-0.07v0.15c0,0.93,0.26,1.85,0.82,2.59c0.93,1.23,2.45,1.86,4.27,1.86
			c2.57,0,5.11-1.66,5.11-4.82l0-2.68C148.56,16.3,147.31,15.17,144.74,14.19z"/>
		<path class="st3" d="M133.5,17.45c-0.02-1.89-0.11-2.32-0.38-2.75c-0.24-0.31-0.63-0.56-1.09-0.81l-0.74-0.35
			c-0.24-0.11-0.4-0.36-0.4-0.62v-0.48h-3.02v0.8c0,0.84,0.11,1.42,0.75,1.77c1.33,0.71,1.25,0.67,1.33,0.71
			c0.27,0.12,0.45,0.39,0.45,0.69v0.93c-2.19,0.43-3.85,1.98-3.85,4.47c0,2.97,2.36,4.6,5.16,4.6c2.8,0,5.16-1.63,5.16-4.6
			C136.87,19.5,135.45,18,133.5,17.45z M131.71,23.74c-1.28,0-2.1-0.69-2.1-1.94c0-1.25,0.82-1.94,2.1-1.94
			c1.28,0,2.1,0.69,2.1,1.94C133.81,23.05,132.99,23.74,131.71,23.74z"/>
		<path class="st3" d="M180.54,12.44c-2.57,0-5.16,1.66-5.16,4.82v5.61c0,2.56,0,3.53,0,3.53h3.05c0,0,0-1.37,0-3.2v-5.59
			c0-1.56,0.81-2.51,2.11-2.51c1.3,0,2.11,0.96,2.11,2.51v5.59c0,1.83,0.01,3.2,0.01,3.2h3.04c0,0,0-0.97,0-3.53v-5.61
			C185.7,14.1,183.1,12.44,180.54,12.44z"/>
		<path class="st3" d="M87.65,16.98L87.65,16.98c-0.15-2.99-2.67-4.55-5.16-4.55c-2.57,0-5.16,1.66-5.16,4.82v0.42h3.05V17.6
			c0-1.56,0.81-2.51,2.11-2.51c1.3,0,2.11,0.96,2.11,2.51v0.38c0,0.53,0,1.02,0,1.43l0,0.64v1.19c0,1.56-0.81,2.51-2.11,2.51
			c-1.3,0-2.11-0.96-2.11-2.51v-0.19h-3.05v0.54c0,3.17,2.59,4.82,5.16,4.82c2.57,0,5.16-1.66,5.16-4.82v-0.54l0,0c0,0,0-0.84,0-3.4
			v-0.39c0,0,0,0,0,0V16.98z"/>
		<path class="st3" d="M96.03,21.94c2.2,0,4.57-1.76,4.57-4.67c0-2.91-2.37-4.82-5.17-4.82c-2.8,0-5.16,1.9-5.16,4.72l0,3.79
			c0,3.54,1.34,5.46,4.84,5.46h4.4v-2.54h-4.29c-1.39,0-1.94-0.89-1.93-2.6v-0.34C94.03,21.59,95.01,21.94,96.03,21.94z M95.43,15.1
			c1.15,0,2.08,0.93,2.08,2.08c0,1.15-0.93,2.08-2.08,2.08c-1.15,0-2.08-0.93-2.08-2.08C93.35,16.03,94.28,15.1,95.43,15.1z"/>
		<path class="st3" d="M156.85,16.9c-1.02,0-2,0.34-2.73,1.01v-0.34c-0.01-1.71,0.55-2.6,1.93-2.6h4.29v-2.54h-4.4
			c-3.51,0-4.84,1.92-4.84,5.46l0,3.79c0,2.82,2.36,4.72,5.16,4.72c2.8,0,5.17-1.91,5.17-4.82C161.43,18.66,159.06,16.9,156.85,16.9
			z M156.26,23.74c-1.15,0-2.08-0.93-2.08-2.08c0-1.15,0.93-2.08,2.08-2.08c1.15,0,2.08,0.93,2.08,2.08
			C158.34,22.8,157.41,23.74,156.26,23.74z"/>
		<path class="st3" d="M70.3,17.22c-1.02,0-2,0.26-2.67,0.96v-0.4c0-1.75,0.45-2.79,1.95-2.79h4.04v-2.57h-4.15
			c-3.45,0-4.83,1.85-4.89,5.24v5.16c0,2.58-0.01,3.57-0.01,3.57h3.08c0,0,0-1.39,0-3.23c0-0.21,0.03-1.28,0.03-1.28
			c0-1.16,0.94-2.15,2.25-2.15c1.37,0,1.97,1.02,1.97,2.12c0,0,0.01,1.13,0.01,1.31c0,1.85,0,3.23,0,3.23h3.07
			c0,0,0.01-0.98,0.01-3.56v-1C74.98,18.84,72.78,17.22,70.3,17.22z"/>
		<path class="st3" d="M168.55,15.63v-3.19h-2.93v7.63l2.93-0.83v-0.97c0.89,0.33,1.53,1.07,1.53,2.09v0.87
			c0,1.56-0.81,2.52-2.11,2.52c-1.11,0-1.86-0.7-2.06-1.87l-2.98,0.85c0.54,2.42,2.52,3.68,5.09,3.68c2.57,0,5.11-1.66,5.11-4.82
			v-1.58C173.13,17.8,171.82,15.91,168.55,15.63"/>
		<path class="st3" d="M57.68,15.63v-3.19h-2.93v7.63l2.93-0.83v-0.97c0.89,0.33,1.53,1.07,1.53,2.09v0.87
			c0,1.56-0.81,2.52-2.11,2.52c-1.11,0-1.86-0.7-2.06-1.87l-2.98,0.85c0.54,2.42,2.52,3.68,5.09,3.68c2.57,0,5.11-1.66,5.11-4.82
			v-1.58C62.25,17.8,60.94,15.91,57.68,15.63"/>
	</g>
	<g>
		<g>
			<path class="st3" d="M59.13,45.22c1.5,0,2.72-0.58,3.67-1.77l1.95,2c-1.55,1.75-3.37,2.62-5.48,2.62c-2.1,0-3.83-0.66-5.19-1.98
				c-1.36-1.33-2.03-3-2.03-5.03c0-2.02,0.69-3.71,2.07-5.06c1.39-1.35,3.08-2.02,5.09-2.02c2.23,0,4.1,0.85,5.61,2.55l-1.89,2.15
				c-0.97-1.2-2.16-1.8-3.59-1.8c-1.14,0-2.12,0.37-2.94,1.12c-0.81,0.75-1.22,1.76-1.22,3.02c0,1.27,0.39,2.29,1.15,3.05
				C57.11,44.84,58.04,45.22,59.13,45.22"/>
			<path class="st3" d="M78.21,38.73c0,2.18-0.87,3.6-2.6,4.23l3.45,4.88h-3.74l-3.02-4.36h-2.1v4.36h-3.05V34.21h5.17
				c2.11,0,3.63,0.35,4.53,1.07C77.76,36,78.21,37.15,78.21,38.73 M74.54,40.36c0.38-0.33,0.56-0.88,0.56-1.61
				c0-0.73-0.19-1.24-0.59-1.52c-0.39-0.27-1.07-0.41-2.05-0.41h-2.28v4.04h2.22C73.46,40.86,74.17,40.7,74.54,40.36"/>
			<polygon class="st3" points="90.63,34.21 90.63,36.93 83.83,36.93 83.83,39.73 89.95,39.73 89.95,42.33 83.83,42.33 83.83,45.14 
				90.84,45.14 90.84,47.85 80.8,47.85 80.8,34.21 			"/>
			<path class="st3" d="M103.44,36c1.3,1.18,1.95,2.84,1.95,4.96c0,2.12-0.64,3.79-1.9,5.04c-1.27,1.23-3.21,1.85-5.81,1.85h-4.66
				V34.21h4.82C100.27,34.21,102.14,34.8,103.44,36 M101.21,44.1c0.74-0.7,1.12-1.72,1.12-3.07c0-1.33-0.38-2.37-1.12-3.08
				c-0.75-0.73-1.9-1.08-3.45-1.08h-1.7v8.28H98C99.39,45.15,100.46,44.8,101.21,44.1"/>
			<path class="st3" d="M119.13,46.05c-1.38,1.35-3.07,2.02-5.09,2.02c-2.02,0-3.71-0.67-5.09-2.02c-1.38-1.35-2.07-3.03-2.07-5.03
				c0-2,0.69-3.68,2.07-5.02c1.38-1.34,3.07-2.02,5.09-2.02c2.02,0,3.71,0.67,5.09,2.02c1.38,1.34,2.07,3.02,2.07,5.02
				C121.2,43.02,120.51,44.7,119.13,46.05 M118.09,41.03c0-1.21-0.39-2.25-1.17-3.1c-0.78-0.86-1.74-1.29-2.88-1.29
				c-1.13,0-2.1,0.43-2.88,1.29c-0.78,0.85-1.17,1.89-1.17,3.1c0,1.22,0.39,2.25,1.17,3.1c0.78,0.85,1.75,1.28,2.88,1.28
				c1.13,0,2.09-0.43,2.88-1.28C117.7,43.28,118.09,42.25,118.09,41.03"/>
		</g>
		<g>
			<path class="st3" d="M135.25,47.84h-5.96V34.21h5.31c0.92,0,1.71,0.11,2.38,0.32c0.67,0.23,1.17,0.53,1.52,0.9
				c0.61,0.7,0.92,1.49,0.92,2.38c0,1.07-0.35,1.86-1.03,2.38c-0.24,0.18-0.4,0.3-0.49,0.35c-0.08,0.04-0.25,0.12-0.49,0.22
				c0.84,0.18,1.52,0.56,2.02,1.14c0.5,0.58,0.75,1.3,0.75,2.16c0,0.95-0.33,1.78-0.98,2.52C138.43,47.42,137.12,47.84,135.25,47.84
				 M132.33,39.73h1.44c0.85,0,1.47-0.1,1.89-0.28c0.42-0.18,0.61-0.57,0.61-1.18c0-0.61-0.18-1-0.57-1.2
				c-0.38-0.19-1.01-0.29-1.91-0.29h-1.46V39.73z M132.33,45.27h2.09c0.87,0,1.52-0.11,1.96-0.32c0.43-0.21,0.65-0.64,0.65-1.27
				c0-0.63-0.23-1.05-0.69-1.25c-0.46-0.21-1.2-0.31-2.21-0.31h-1.79V45.27z"/>
			<path class="st3" d="M152.28,47.85l-1.27-2.94h-5.71l-1.27,2.94h-3.24l5.89-13.63h2.94l5.89,13.63H152.28z M148.17,38.27
				l-1.72,3.96h3.41L148.17,38.27z"/>
			<polygon class="st3" points="166.64,34.21 169.68,34.21 169.68,47.85 166.64,47.85 160.14,39.3 160.14,47.85 157.1,47.85 
				157.1,34.21 159.95,34.21 166.64,42.99 			"/>
			<polygon class="st3" points="184.19,34.21 180.35,34.21 175.86,39.79 175.86,34.21 172.81,34.21 172.81,47.85 175.86,47.85 
				175.86,41.95 180.91,47.85 184.85,47.85 178.61,40.77 			"/>
		</g>
	</g>
</g>
</svg>
